<?xml version="1.0" encoding="utf-8"?>
<!-- Generator: Adobe Illustrator 26.2.1, SVG Export Plug-In . SVG Version: 6.00 Build 0)  -->
<svg version="1.1" id="Layer_1" xmlns="http://www.w3.org/2000/svg" xmlns:xlink="http://www.w3.org/1999/xlink" x="0px" y="0px"
	 viewBox="0 0 595.3 841.9" style="enable-background:new 0 0 595.3 841.9;" xml:space="preserve">
<style type="text/css">
	.st0{clip-path:url(#SVGID_00000152983504216006660000000016800117543459195067_);fill:#020203;}
	.st1{clip-path:url(#SVGID_00000152983504216006660000000016800117543459195067_);fill:#D54A42;}
	.st2{clip-path:url(#SVGID_00000152983504216006660000000016800117543459195067_);fill:#231F20;}
	.st3{fill:#020203;}
</style>
<g>
	<defs>
		<rect id="SVGID_1_" x="15.5" y="19.6" width="149.7" height="53.9"/>
	</defs>
	<clipPath id="SVGID_00000009578392568693316630000016814495727883653292_">
		<use xlink:href="#SVGID_1_"  style="overflow:visible;"/>
	</clipPath>
	<path style="clip-path:url(#SVGID_00000009578392568693316630000016814495727883653292_);fill:#020203;" d="M71.7,26.7h-23l2.1-3.6
		c0.9-1.5-0.2-3.5-2-3.5h-6.5c-1.8,0-2.9,1.9-2,3.5l2.1,3.6h-23c-2.2,0-3.9,1.7-3.9,3.9h60.1C75.6,28.5,73.9,26.7,71.7,26.7"/>
	<path style="clip-path:url(#SVGID_00000009578392568693316630000016814495727883653292_);fill:#D54A42;" d="M48.2,49.3h-5.3
		c-1.4,0-2.5-1.1-2.5-2.5v-5.1c0-1.4,1.1-2.5,2.5-2.5h5.3c1.4,0,2.5,1.1,2.5,2.5v5.1C50.7,48.1,49.6,49.3,48.2,49.3"/>
	<path style="clip-path:url(#SVGID_00000009578392568693316630000016814495727883653292_);fill:#231F20;" d="M82.1,32.4H85v2.3
		c1-1.8,2.6-2.6,4.8-2.6c1.8,0,3.3,0.6,4.4,1.7c1.1,1.1,1.7,2.7,1.7,4.8c0,1.3-0.3,2.5-0.8,3.5c-0.5,1-1.3,1.8-2.2,2.3
		c-0.9,0.5-2,0.8-3.1,0.8c-1.1,0-2-0.2-2.8-0.6c-0.8-0.4-1.4-0.9-1.9-1.6l0,6.2h-2.9V32.4z M91.8,41.6c0.6-0.8,1-1.7,1-2.9
		c0-1.2-0.3-2.2-1-3c-0.6-0.7-1.6-1.1-2.8-1.1c-0.7,0-1.3,0.2-1.9,0.5c-0.6,0.3-1,0.8-1.4,1.4c-0.3,0.6-0.5,1.3-0.5,2.1v0.2
		c0,0.8,0.2,1.5,0.5,2.1c0.3,0.6,0.8,1.1,1.4,1.4c0.6,0.3,1.2,0.5,1.9,0.5C90.2,42.8,91.1,42.4,91.8,41.6"/>
	<path style="clip-path:url(#SVGID_00000009578392568693316630000016814495727883653292_);fill:#231F20;" d="M100.5,44.4
		c-1-0.5-1.8-1.3-2.3-2.3c-0.6-1-0.9-2.2-0.9-3.5c0-1.3,0.3-2.5,0.8-3.4c0.5-1,1.2-1.7,2.2-2.3c0.9-0.5,2.1-0.8,3.3-0.8
		c0.7,0,1.4,0.1,2.1,0.4c0.7,0.3,1.2,0.6,1.6,0.9c0.4,0.4,0.7,0.7,0.9,1.1l0.1-2.1h2.9V45h-2.8l-0.1-2.2c-0.3,0.7-0.9,1.2-1.7,1.7
		c-0.8,0.5-1.8,0.8-2.8,0.8C102.6,45.2,101.5,45,100.5,44.4 M106.9,41.7c0.7-0.7,1.1-1.7,1.1-2.8v-0.2c0-0.8-0.2-1.5-0.5-2.1
		c-0.3-0.6-0.8-1.1-1.4-1.4c-0.6-0.3-1.2-0.5-1.9-0.5c-1.2,0-2.1,0.4-2.8,1.1c-0.7,0.8-1,1.7-1,2.9c0,1.2,0.3,2.2,1,3
		c0.6,0.8,1.6,1.1,2.8,1.1C105.3,42.8,106.2,42.4,106.9,41.7"/>
	<polygon style="clip-path:url(#SVGID_00000009578392568693316630000016814495727883653292_);fill:#231F20;" points="125.5,45 
		122,45 119.4,40.9 118.7,39.5 117,41.3 117,45 114.1,45 114.1,24.9 117,24.9 117,35.9 116.9,38 121.8,32.4 125.5,32.4 120.7,37.7 	
		"/>
	<path style="clip-path:url(#SVGID_00000009578392568693316630000016814495727883653292_);fill:#231F20;" d="M128.6,44.4
		c-1-0.6-1.8-1.4-2.3-2.4c-0.5-1-0.7-2.1-0.7-3.3c0-1.3,0.3-2.5,0.8-3.5c0.6-1,1.4-1.8,2.4-2.3c1-0.5,2.1-0.8,3.4-0.8
		c2,0,3.4,0.5,4.4,1.6c1,1.1,1.4,2.6,1.4,4.5c0,0.5,0,1-0.1,1.5h-9.2c0.2,1.1,0.6,1.9,1.2,2.4c0.6,0.5,1.4,0.7,2.5,0.7
		c0.9,0,1.6-0.1,2.2-0.2c0.6-0.1,1.1-0.3,1.6-0.6l0.9,2.1c-0.5,0.3-1.1,0.5-1.9,0.8c-0.8,0.2-1.8,0.3-2.9,0.3
		C130.9,45.2,129.6,45,128.6,44.4 M135.1,37.7c0-1.1-0.2-1.9-0.8-2.4c-0.5-0.5-1.3-0.7-2.2-0.7c-2,0-3.1,1-3.4,3.1H135.1z"/>
	<polygon style="clip-path:url(#SVGID_00000009578392568693316630000016814495727883653292_);fill:#231F20;" points="141.1,34.8 
		138.9,34.8 138.9,32.4 141.1,32.4 141.1,27.3 144.2,26.7 144.2,32.4 147.1,32.4 147.1,34.8 144.2,34.8 144.2,45 141.1,45 	"/>
	<path style="clip-path:url(#SVGID_00000009578392568693316630000016814495727883653292_);fill:#231F20;" d="M82.1,55h3v2.3
		c0.4-0.9,1-1.5,1.8-1.9c0.8-0.4,1.7-0.7,2.7-0.7c2.3,0,3.7,0.8,4.2,2.3c0.4-0.7,1-1.3,1.8-1.7c0.8-0.4,1.7-0.6,2.6-0.6
		c1.3,0,2.4,0.3,3,0.8c0.7,0.5,1.1,1.2,1.4,2.1c0.2,0.9,0.3,2.2,0.3,3.7v6.3h-3v-6.3c0-1.5-0.2-2.5-0.5-3.2c-0.3-0.6-0.9-1-1.8-1
		c-1.2,0-2.1,0.4-2.7,1.2c-0.6,0.8-0.9,1.8-0.9,3v6.2h-3v-6.7c0-1,0-1.7-0.1-2.2c-0.1-0.5-0.3-0.8-0.6-1.1c-0.3-0.3-0.9-0.4-1.6-0.4
		c-0.7,0-1.3,0.2-1.8,0.6c-0.6,0.4-1,0.9-1.4,1.5c-0.3,0.6-0.5,1.3-0.5,2.1v6.2h-3V55z"/>
	<path style="clip-path:url(#SVGID_00000009578392568693316630000016814495727883653292_);fill:#231F20;" d="M106.6,66.3
		c-0.7-1-1-2.4-1-4.3v-7h3v6.3c0,1,0.1,1.8,0.2,2.4c0.1,0.6,0.4,1,0.7,1.3c0.4,0.3,0.9,0.4,1.6,0.4c0.5,0,1-0.1,1.5-0.4
		c0.5-0.3,0.9-0.7,1.2-1.2c0.3-0.5,0.5-1.1,0.5-1.7V55h3v12.5h-2.5l-0.3-1.8c-0.5,0.7-1,1.2-1.7,1.6c-0.7,0.3-1.5,0.5-2.5,0.5
		C108.4,67.8,107.2,67.3,106.6,66.3"/>
	<polygon style="clip-path:url(#SVGID_00000009578392568693316630000016814495727883653292_);fill:#231F20;" points="121.1,57.4 
		118.9,57.4 118.9,55 121.1,55 121.1,49.9 124.2,49.2 124.2,55 127.1,55 127.1,57.4 124.2,57.4 124.2,67.5 121.1,67.5 	"/>
	<path style="clip-path:url(#SVGID_00000009578392568693316630000016814495727883653292_);fill:#231F20;" d="M130.2,57.3h-2.1V55
		h2.1v-2.7c0-1.6,0.4-2.9,1.2-3.8c0.8-0.9,2-1.4,3.6-1.4c0.6,0,1.3,0.2,2.1,0.5l-0.6,2.8c-0.1-0.1-0.3-0.3-0.6-0.4
		c-0.3-0.1-0.6-0.2-0.9-0.2c-1.2,0-1.9,0.8-1.9,2.4V55h3v2.3h-3v10.2h-3V57.3z"/>
	<path style="clip-path:url(#SVGID_00000009578392568693316630000016814495727883653292_);fill:#231F20;" d="M140.1,67
		c-1-0.5-1.8-1.3-2.3-2.3c-0.6-1-0.9-2.2-0.9-3.5c0-1.3,0.3-2.5,0.8-3.4c0.5-1,1.2-1.7,2.2-2.3c0.9-0.5,2.1-0.8,3.3-0.8
		c0.7,0,1.4,0.1,2.1,0.4c0.7,0.3,1.2,0.6,1.6,0.9c0.4,0.4,0.7,0.7,0.9,1.1l0.1-2.1h2.9v12.5h-2.8l-0.1-2.2c-0.3,0.7-0.9,1.2-1.7,1.7
		c-0.8,0.5-1.8,0.8-2.8,0.8C142.2,67.8,141.1,67.5,140.1,67 M146.5,64.3c0.7-0.7,1.1-1.7,1.1-2.8v-0.2c0-0.8-0.2-1.5-0.5-2.1
		c-0.3-0.6-0.8-1.1-1.4-1.4c-0.6-0.3-1.2-0.5-1.9-0.5c-1.2,0-2.1,0.4-2.8,1.1c-0.7,0.8-1,1.7-1,2.9c0,1.2,0.3,2.2,1,3
		c0.6,0.8,1.6,1.1,2.8,1.1C144.9,65.3,145.8,65,146.5,64.3"/>
	<polygon style="clip-path:url(#SVGID_00000009578392568693316630000016814495727883653292_);fill:#231F20;" points="165.1,67.5 
		161.6,67.5 159,63.4 158.3,62 156.6,63.8 156.6,67.5 153.7,67.5 153.7,47.5 156.6,47.5 156.6,58.5 156.5,60.6 161.4,55 165.1,55 
		160.3,60.2 	"/>
</g>
<path class="st3" d="M68.5,32.2L68.5,32.2L68.5,32.2l0,7H61c-1.5,0-2.7,1.2-2.7,2.7v4.6c0,1.5,1.2,2.7,2.7,2.7h7.5v14.3
	c-6,2.5-11.9,4-17.7,4.7v-8.1c0-1.9-1.5-3.4-3.4-3.4h-3.7c-1.9,0-3.4,1.5-3.4,3.4v8.2c-6.1-0.5-12.1-2.1-17.9-4.7V49.3h7.6
	c1.5,0,2.7-1.2,2.7-2.7v-4.6c0-1.5-1.2-2.7-2.7-2.7h-7.6v-6.9h0v-0.1h-7v2.5c0,1.2,1,2.1,2.1,2.1h0v28.4c0,0.9,0.5,1.8,1.4,2.2
	c8.4,4.1,17.1,6.1,26,6.1c8.8,0,17.8-2,27-6c0.9-0.4,1.5-1.3,1.5-2.2V36.8h0c1.2,0,2.1-1,2.1-2.1v-2.5H68.5z"/>
</svg>
